<svg class="uncg-custom-icon" xmlns="http://www.w3.org/2000/svg" viewBox="0 0 57.1 57" role="img" aria-labelledby="title">
    <title id="title">assignment icon</title>
    <path class="st0"
          d="M56 3.4l-2.4-1.7c-1.2-.9-2.9-.6-3.8.6l-1.4 1.9-6.8 9.5V0H10.2L0 10.2V57h41.7V28L55.2 9.1l1.4-1.9c.9-1.2.6-2.9-.6-3.8zm-45.7.4v6.5H3.8l6.5-6.5zM39 54.3H2.7V12.9H13V2.7h26v14.9L25.2 36.8l-.1.2-1.6 9.5 8.3-4.7 7.2-10v22.5zm-8.8-13.7L25.9 43l.8-4.8 3.5 2.4zM52 10.5l-3.9-2.6 1.3-1.8 3.8 2.7-1.2 1.7zm3.2-4.4l-.9 1.2-3.8-2.7.9-1.3c.3-.4.8-.5 1.2-.2l2.3 1.7c.4.4.5.9.3 1.3z"/>
</svg>
