<svg class="uncg-custom-icon" xmlns="http://www.w3.org/2000/svg" viewBox="0 0 66.2 55.2" role="img" aria-labelledby="title">
    <title id="title">discussion bubbles icon</title>
    <path class="st0"
          d="M42.5 16.4C42.5 7.4 33 0 21.3 0S0 7.4 0 16.4c0 5 3.1 9.9 8.2 13v13.5l8.5-10.4c1.5.3 3 .4 4.6.4 11.7-.1 21.2-7.4 21.2-16.5zM21.3 30.1c-1.6 0-3.2-.2-4.8-.5l-.8-.2-4.8 5.8v-7.6l-.7-.4c-4.7-2.6-7.5-6.7-7.5-11C2.7 8.8 11 2.7 21.3 2.7s18.6 6.2 18.6 13.7-8.4 13.7-18.6 13.7z"/>
    <path class="st0"
          d="M66.2 32.2c0-8.4-9-15.2-20-15.2h-.7v.1c.1.5.1 1 .1 1.4-.1 4.4-2.1 8.5-5.4 11.2-3.8 3.2-8.4 5.2-13.4 5.7h-.1v.1c2.2 6.9 10.2 11.7 19.5 11.7 1.7 0 3.4-.2 5.1-.5l6.8 8.3V44.5c5-2.9 8.1-7.5 8.1-12.3z"/>
</svg>
