<svg class="uncg-custom-icon" xmlns="http://www.w3.org/2000/svg" viewBox="0 0 36 34" role="img" aria-labelledby="title">
	<title id="title">key icon</title>
	<path class="st0"
		  d="M35.466 23.281C35.466 23.5137 35.1327 23.964 34.466 24.632C33.7993 25.3 33.3487 25.6333 33.114 25.632C32.8918 25.5818 32.689 25.4682 32.53 25.305C32.2633 25.0877 32.014 24.8623 31.782 24.629C31.55 24.3957 31.2873 24.1227 30.994 23.81C30.7007 23.496 30.534 23.3187 30.494 23.278L28.528 25.244L33.033 29.75C33.2186 29.9308 33.3653 30.1476 33.464 30.3872C33.5627 30.6267 33.6114 30.8839 33.607 31.143C33.5361 31.7702 33.2544 32.3548 32.8081 32.8011C32.3618 33.2474 31.7772 33.5291 31.15 33.6C30.891 33.6045 30.6338 33.556 30.3943 33.4574C30.1547 33.3589 29.9379 33.2124 29.757 33.027L16.011 19.287C13.8823 20.9792 11.2549 21.9222 8.536 21.97C7.53448 22.0088 6.53559 21.8426 5.60064 21.4815C4.66568 21.1203 3.81439 20.572 3.099 19.87C2.39743 19.1546 1.84937 18.3034 1.48844 17.3686C1.1275 16.4339 0.961293 15.4353 0.999999 14.434C1.02745 12.1561 1.70201 9.93303 2.945 8.024C4.2189 5.9582 5.9582 4.2189 8.024 2.945C9.93303 1.70202 12.1561 1.02745 14.434 0.999999C15.4355 0.961169 16.4344 1.12741 17.3694 1.48853C18.3043 1.84965 19.1556 2.39803 19.871 3.1C20.5729 3.81546 21.1212 4.66676 21.4823 5.6017C21.8434 6.53664 22.0097 7.53549 21.971 8.537C21.9227 11.2558 20.9797 13.883 19.288 16.012L26.558 23.282L28.524 21.316C28.4827 21.276 28.3053 21.1093 27.992 20.816C27.6787 20.5227 27.4057 20.26 27.173 20.028C26.941 19.796 26.715 19.546 26.498 19.281C26.3346 19.122 26.2207 18.9192 26.17 18.697C26.17 18.465 26.5033 18.0143 27.17 17.345C27.8367 16.6757 28.2873 16.3423 28.522 16.345C28.61 16.3446 28.6971 16.3621 28.7781 16.3965C28.8591 16.4308 28.9322 16.4814 28.993 16.545C29.075 16.627 29.389 16.9307 29.935 17.456C30.481 17.9813 31.0407 18.524 31.614 19.084C32.1873 19.644 32.778 20.2313 33.386 20.846C33.994 21.4607 34.4923 21.994 34.881 22.446C35.271 22.8927 35.466 23.171 35.466 23.281ZM16.892 11.649C17.2636 11.2876 17.5571 10.8537 17.7544 10.3744C17.9516 9.89501 18.0485 9.38028 18.039 8.862C18.041 8.34518 17.9406 7.83308 17.7437 7.35524C17.5468 6.87741 17.2572 6.44329 16.8916 6.07793C16.5261 5.71258 16.0918 5.42321 15.6139 5.22653C15.136 5.02985 14.6238 4.92975 14.107 4.932C13.5902 4.92975 13.078 5.02985 12.6001 5.22653C12.1222 5.42321 11.6879 5.71258 11.3224 6.07793C10.9568 6.44329 10.6672 6.87741 10.4703 7.35524C10.2734 7.83308 10.173 8.34518 10.175 8.862C10.1783 9.45036 10.3111 10.0308 10.564 10.562C10.0327 10.3093 9.45233 10.1764 8.864 10.173C8.34696 10.1709 7.83463 10.2712 7.35655 10.4681C6.87848 10.665 6.44413 10.9546 6.07858 11.3203C5.71302 11.6859 5.4235 12.1204 5.2267 12.5985C5.02991 13.0766 4.92975 13.589 4.932 14.106C4.92254 14.6238 5.01945 15.1381 5.21675 15.617C5.41404 16.0958 5.70751 16.5291 6.079 16.89C6.44018 17.2614 6.87366 17.5548 7.35266 17.752C7.83167 17.9493 8.34604 18.0463 8.864 18.037C9.38112 18.0396 9.89364 17.9398 10.372 17.7434C10.8503 17.5469 11.285 17.2576 11.6509 16.8922C12.0169 16.5268 12.3068 16.0926 12.5041 15.6145C12.7013 15.1365 12.8019 14.6241 12.8 14.107C12.7967 13.5186 12.6639 12.9382 12.411 12.407C12.9423 12.6597 13.5227 12.7925 14.111 12.796C14.6283 12.8047 15.1419 12.7074 15.6201 12.5102C16.0984 12.3129 16.5312 12.0198 16.892 11.649V11.649Z"/>
</svg>
