<svg class="uncg-custom-icon" xmlns="http://www.w3.org/2000/svg" viewBox="0 0 63.3 45.1" role="img" aria-labelledby="title">
    <title id="title">objectives icon</title>
    <path class="st0"
          d="M4.9 9.8C2.2 9.8 0 7.6 0 4.9S2.2 0 4.9 0s4.9 2.2 4.9 4.9-2.2 4.9-4.9 4.9zm0-7.1c-1.2 0-2.2 1-2.2 2.2s1 2.2 2.2 2.2 2.2-1 2.2-2.2c0-1.2-1-2.2-2.2-2.2zm0 24.6c-2.7 0-4.9-2.2-4.9-4.9s2.2-4.9 4.9-4.9 4.9 2.2 4.9 4.9-2.2 4.9-4.9 4.9zm0-7.1c-1.2 0-2.2 1-2.2 2.2 0 1.2 1 2.2 2.2 2.2s2.2-1 2.2-2.2-1-2.2-2.2-2.2zm0 24.9c-2.7 0-4.9-2.2-4.9-4.9s2.2-4.9 4.9-4.9 4.9 2.2 4.9 4.9-2.2 4.9-4.9 4.9zm0-7.1c-1.2 0-2.2 1-2.2 2.2s1 2.2 2.2 2.2 2.2-1 2.2-2.2c0-1.2-1-2.2-2.2-2.2zM16 2h47.3v5.9H16zm.1 17.5h47.3v5.9H16.1zM16 37.2h47.3v5.9H16z"/>
</svg>
