<svg class="uncg-custom-icon" xmlns="http://www.w3.org/2000/svg" viewBox="0 0 66.3 46.9" role="img" aria-labelledby="title">
    <title id="title">book icon</title>
    <path class="st0"
          d="M56.9 11.6c-.1 0-.3 0-.4-.1-2.7-1.2-5.5-1.9-8.4-2.2-3.2-.1-6.4.3-9.5 1.3-.5.2-1-.1-1.2-.5-.2-.5.1-1 .5-1.1 3.3-1.1 6.7-1.5 10.2-1.4 3.2.2 6.2 1 9.1 2.4.4.2.6.7.4 1.2 0 .3-.3.5-.7.4zm-.6 6.1c-.1 0-.2 0-.4-.1-2.6-1.1-5.4-1.7-8.2-1.9-3.1-.1-6.2.3-9.2 1.2-.5.2-1-.1-1.1-.6-.2-.5.1-1 .6-1.1 3.2-1 6.5-1.4 9.8-1.2 3 .2 6 .9 8.8 2.1.4.2.6.7.5 1.1-.1.3-.4.6-.8.5zm-.5 6c-.1 0-.2 0-.3-.1-2.5-1-5.2-1.6-8-1.8-3-.1-6 .3-8.9 1.1-.5.1-1-.1-1.1-.6-.1-.5.1-1 .6-1.1 3.1-.9 6.3-1.3 9.5-1.2 2.9.2 5.8.9 8.6 2 .4.2.7.7.5 1.1-.2.4-.6.7-.9.6zm-.5 6c-.1 0-.2 0-.4-.1-2.4-1-5-1.6-7.6-1.8-2.9-.1-5.8.3-8.6 1.1-.5.2-1-.1-1.1-.6s.1-1 .6-1.1c3-.9 6.1-1.3 9.2-1.2 2.8.2 5.6.9 8.3 2 .4.2.6.7.5 1.1-.2.4-.6.6-.9.6zm-.3 5.9c-.1 0-.3 0-.4-.1-2.4-1-4.9-1.6-7.5-1.8-2.8-.1-5.7.3-8.4 1.1-.5.2-1-.1-1.1-.5s.1-1 .5-1.1c2.9-.9 6-1.3 9-1.2 2.8.2 5.6.9 8.1 2 .4.2.6.8.3 1.2 0 .2-.2.4-.5.4zm-45.6-24c-.5 0-.9-.4-.8-.9 0-.3.2-.6.5-.7 2.9-1.3 6-2.1 9.1-2.3 3.4-.2 6.8.2 10.1 1.3.5.2.7.7.5 1.1-.2.5-.7.7-1.1.5-3.1-1-6.3-1.4-9.5-1.3-2.9.2-5.8 1-8.4 2.2-.2.1-.3.1-.4.1zm.6 6.1c-.5 0-.9-.4-.9-.9 0-.4.2-.7.5-.8 2.8-1.2 5.8-1.9 8.8-2.1 3.3-.1 6.6.3 9.8 1.2.5.2.7.6.6 1.1-.2.5-.6.7-1.1.6-3-.9-6.1-1.3-9.2-1.2-2.8.2-5.6.8-8.2 1.9 0 .2-.2.2-.3.2zm.6 6c-.5 0-.9-.3-.9-.8 0-.4.2-.8.6-.9 2.7-1.1 5.6-1.8 8.6-2 3.2-.1 6.5.3 9.6 1.2.5.1.7.6.6 1.1s-.6.7-1.1.6c-2.9-.8-5.9-1.2-8.9-1.1-2.7.2-5.4.8-7.9 1.8-.4 0-.5.1-.6.1zm.4 6c-.5 0-.9-.4-.9-.9 0-.3.2-.7.5-.8 2.6-1.1 5.4-1.8 8.3-2 3.1-.1 6.2.3 9.2 1.2.5.2.7.6.6 1.1s-.6.7-1.1.6c-2.8-.8-5.7-1.2-8.6-1-2.6.2-5.2.8-7.6 1.8-.2-.1-.3 0-.4 0zm.3 5.9c-.5-.1-.8-.5-.8-1 0-.3.2-.5.4-.6 2.6-1.1 5.3-1.8 8.1-2 3.1-.1 6.1.3 9.1 1.2.5.2.7.7.6 1.1-.2.5-.7.7-1.1.5-2.7-.8-5.6-1.2-8.4-1.1-2.6.2-5.1.8-7.5 1.8-.1.1-.2.1-.4.1z"/>
    <path class="st0"
          d="M64.4 7.5h-.8l.1-2.3-.6-.4C58.5 1.7 53.1.1 47.5 0c-4.9.1-9.8 1.2-14.3 3.2-4.5-2-9.4-3.1-14.3-3.2C13.4.1 8 1.7 3.3 4.8l-.5.4.1 2.4h-1c-1.1 0-2 .6-1.9 1.7l1.9 35.1c.1 1 .9 1.8 1.9 1.9l25.6-1.1c1 1.1 2.3 1.7 3.7 1.8 1.4-.1 2.8-.8 3.7-1.8l25.8 1.1c1-.1 1.9-.9 1.9-1.9l1.7-35c0-1-.8-1.8-1.8-1.8.1-.1.1-.1 0-.1zM34.1 5.8c4.2-1.9 8.8-3 13.4-3.1 4.7.1 9.3 1.4 13.3 3.9L59 41.1c-3.3-.8-9.5-2.2-13.8-2.2-3.8.2-7.5.9-11.1 2.1V5.8zM18.9 2.7c4.7.1 9.3 1.2 13.5 3.1V41c-3.6-1.2-7.3-1.9-11.1-2.1-4.3 0-10.4 1.4-13.8 2.2l-2-34.6c4-2.4 8.7-3.7 13.4-3.8z"/>
</svg>
