<svg class="uncg-custom-icon" xmlns="http://www.w3.org/2000/svg" viewBox="0 0 65.2 47.8" role="img" aria-labelledby="title">
    <title id="title">video player icon</title>
    <path class="st0"
          d="M23.2 37.1l20.4-11.8c.8-.5 1.1-1.5.6-2.3-.1-.2-.4-.5-.6-.6L23.2 10.7c-.8-.5-1.8-.2-2.3.6-.1.2-.2.5-.2.8v23.5c0 .9.7 1.7 1.7 1.7.3 0 .6-.1.8-.2z"/>
    <path class="st0"
          d="M63.2 0H2C.9 0 0 .9 0 2v43.8c0 1.1.9 2 2 2h61.2c1.1 0 2-.9 2-2V2c0-1.1-.9-2-2-2zM2.7 2.7h6.2V9H2.7V2.7zm0 9h6.2V18H2.7v-6.3zm0 9h6.2V27H2.7v-6.3zm6.2 9V36H2.7v-6.2l6.2-.1zM2.7 45.1v-6.3h6.2v6.3H2.7zm51 0H11.6V2.7h42.2l-.1 42.4zm8.8 0h-6v-6.3h6.1l-.1 6.3zm0-9h-6v-6.3h6.1l-.1 6.3zm0-9h-6v-6.4h6.1l-.1 6.4zm0-9h-6v-6.4h6.1l-.1 6.4zm0-9h-6V2.7h6.1l-.1 6.4z"/>
</svg>
